<?xml version="1.0" encoding="iso-8859-1"?>
<!-- Generator: Adobe Illustrator 18.0.0, SVG Export Plug-In . SVG Version: 6.00 Build 0)  -->
<!DOCTYPE svg PUBLIC "-//W3C//DTD SVG 1.1//EN" "http://www.w3.org/Graphics/SVG/1.1/DTD/svg11.dtd">
<svg version="1.1" id="Capa_1" xmlns="http://www.w3.org/2000/svg" xmlns:xlink="http://www.w3.org/1999/xlink" x="0px" y="0px"
	 viewBox="0 0 459.119 459.119" style="enable-background:new 0 0 459.119 459.119;" xml:space="preserve">
<g>
	<path d="M228.54,278.344c37.051,0,67.194-30.143,67.194-67.194s-30.143-67.194-67.194-67.194s-67.194,30.143-67.194,67.194
		S191.488,278.344,228.54,278.344z M228.54,158.956c28.78,0,52.194,23.414,52.194,52.194s-23.414,52.194-52.194,52.194
		c-28.78,0-52.194-23.414-52.194-52.194S199.759,158.956,228.54,158.956z"/>
	<path d="M228.54,254.544c23.927,0,43.394-19.466,43.394-43.394c0-11.676-4.571-22.629-12.87-30.844
		c-2.944-2.913-7.693-2.891-10.606,0.055c-2.914,2.944-2.89,7.692,0.054,10.606c5.432,5.375,8.423,12.543,8.423,20.183
		c0,15.657-12.737,28.394-28.394,28.394c-4.142,0-7.5,3.358-7.5,7.5S224.397,254.544,228.54,254.544z"/>
	<path d="M228.54,182.756c1.666,0,3.333,0.145,4.958,0.43c0.439,0.077,0.876,0.115,1.307,0.115c3.573,0,6.738-2.563,7.378-6.204
		c0.717-4.08-2.009-7.968-6.089-8.685c-2.479-0.436-5.021-0.657-7.554-0.657c-4.142,0-7.5,3.358-7.5,7.5
		S224.397,182.756,228.54,182.756z"/>
	<path d="M340.88,221.874C318.768,137.957,238.819,9.777,234.895,3.516C233.522,1.328,231.122,0,228.54,0
		c-2.582,0-4.983,1.328-6.354,3.516c-3.94,6.285-84.487,135.423-106.237,219.318c-28.36,12.569-47.155,44.708-47.155,81.416
		c0,45.464,63.353,147.049,66.05,151.351c1.396,2.228,3.82,3.517,6.354,3.517c0.688,0,1.386-0.095,2.072-0.292
		c3.214-0.924,5.428-3.864,5.428-7.208v-88.49c16.27,18.106,36.746,30.768,59.435,35.569l13.114,54.671
		c0.809,3.373,3.825,5.75,7.293,5.75s6.484-2.378,7.293-5.75l13.113-54.671c23.642-5.002,44.882-18.54,61.462-37.878v90.799
		c0,3.344,2.214,6.284,5.427,7.208c0.688,0.197,1.384,0.292,2.073,0.292c2.534,0,4.958-1.289,6.354-3.517
		c2.697-4.302,66.063-105.887,66.063-151.352C390.325,266.76,370.188,233.581,340.88,221.874z M228.54,21.861
		c9.12,15.085,26.821,45.055,44.913,79.495c-14.001,6.584-29.384,10.045-44.913,10.045c-15.529,0-30.911-3.46-44.913-10.045
		C201.718,66.916,219.419,36.947,228.54,21.861z M176.723,114.691c16.131,7.679,33.891,11.71,51.817,11.71
		c17.926,0,35.686-4.031,51.817-11.711c33.482,65.637,51.151,115.207,51.151,143.603c0,15.74-2.32,30.818-6.548,44.75
		c-30.282,14.368-62.701,21.672-96.419,21.672c-33.719,0-66.138-7.304-96.42-21.672c-4.228-13.932-6.548-29.01-6.548-44.75
		C125.572,229.898,143.24,180.327,176.723,114.691z M133.698,424.354c-5.436-9.456-11.906-21.084-18.338-33.521
		c-20.651-39.929-31.566-69.869-31.566-86.583c0-25.502,11.041-48.889,28.049-61.678c-0.826,5.588-1.27,10.854-1.27,15.722
		c0,31.68,8.602,60.976,23.125,84.667V424.354z M228.54,419.463l-4.495-18.74c1.492,0.068,2.99,0.114,4.495,0.114
		s3.003-0.046,4.495-0.114L228.54,419.463z M228.54,385.837c-37.816,0-70.931-25.387-88.834-63.121
		c28.223,11.276,58.021,17,88.834,17c30.813,0,60.611-5.725,88.834-17C299.47,360.449,266.356,385.837,228.54,385.837z
		 M325.408,424.359v-84.813c13.292-23.067,21.099-51.076,21.099-81.252c0-5.351-0.533-11.179-1.525-17.392
		c18.358,12.285,30.343,36.412,30.343,63.349c0,16.713-10.918,46.653-31.572,86.583
		C337.318,403.271,330.845,414.903,325.408,424.359z"/>
</g>
<g>
</g>
<g>
</g>
<g>
</g>
<g>
</g>
<g>
</g>
<g>
</g>
<g>
</g>
<g>
</g>
<g>
</g>
<g>
</g>
<g>
</g>
<g>
</g>
<g>
</g>
<g>
</g>
<g>
</g>
</svg>
